M48
INCH
T01C0.0200
T02C0.0300
T03C0.0400
%
T01
X-002260Y+003390
X+005330Y+013350
X-000040Y+013160
X-010070Y+016860
X-001340Y+012560
X-012150Y+012700
X-002340Y+007720
X-008950Y+003390
T02
X-009340Y+008690
X-008340Y+008690
X-007340Y+008690
X-006340Y+008690
X-005340Y+008690
X-004340Y+008690
X-003340Y+008690
X-002340Y+008690
X-001340Y+008690
X-000340Y+008690
X+000660Y+008690
X+001660Y+008690
X+002660Y+008690
X+003660Y+008690
X+003660Y+011690
X+002660Y+011690
X+001660Y+011690
X+000660Y+011690
X-000340Y+011690
X-001340Y+011690
X-002340Y+011690
X-003340Y+011690
X-004340Y+011690
X-005340Y+011690
X-006340Y+011690
X-007340Y+011690
X-008340Y+011690
X-009332Y+011690
X-001740Y+006120
X+000260Y+006120
X-001750Y+004310
X-002750Y+004310
X+001270Y+004290
X+000270Y+004290
X-011290Y+011920
X-011290Y+007920
X-009600Y+004250
X-009600Y+005250
X-008380Y+004230
X-008380Y+005230
X+004500Y+016350
X+004500Y+012350
T03
X-011210Y+014820
X-011210Y+015820
X-011210Y+016820
X-011210Y+017820
X-011210Y+018820
X-011210Y+019820
X-007790Y+001890
X-006790Y+001890
X-005790Y+001890
X-004790Y+001890
X-003790Y+001890
X-002790Y+001890
X-001790Y+001890
X-000790Y+001890
X+000210Y+001890
X+001210Y+001890
X+002210Y+001890
X+003210Y+001890
X-007710Y+019860
X-006710Y+019860
X-005710Y+019860
X-004710Y+019860
X-003710Y+019860
X-002710Y+019860
X-001710Y+019860
X-000710Y+019860
X+000290Y+019860
X+001290Y+019860
X+002290Y+019860
X+003290Y+019860
X-010920Y+004270
X-010920Y+005270
X+003060Y+017750
X+004060Y+017750
M30
